<svg x="0" y="0" width="1024" height="1024" version="1.1"
    xmlns="http://www.w3.org/2000/svg"
    xmlns:xlink="http://www.w3.org/1999/xlink">
    <title>html tag2 icon</title>
    <desc>html tag2 icon from the IconExperience.com O-Collection. Copyright by INCORS GmbH (www.incors.com).</desc>
    <g fill="#808080" stroke="none" stroke-width="1" stroke-linecap="butt" stroke-linejoin="miter" stroke-miterlimit="4" stroke-dasharray="" stroke-dashoffset="0" font-family="serif" font-weight="400" font-size="16" text-anchor="start" mix-blend-mode="normal">
        <g>
            <g>
                <g>
                    <path d="M675.9,361.4l139.3,139.3c6.2,6.2 6.2,16.4 0,22.6l-139.3,139.3l-45.3,-45.2l105.4,-105.4l-105.4,-105.4z M393.4,406.6l-105.4,105.4l105.4,105.4l-45.3,45.2l-139.3,-139.3c-6.2,-6.2 -6.2,-16.4 0,-22.6l139.3,-139.3z M605.6,363.9l-128,320l-59.2,-23.8l128,-320z" id="curve1"/>
                    <path d="M128,256l768,0c35.3,0 64,28.8 64,64l0,384c0,35.2 -28.8,64 -64,64l-768,0c-35.2,0 -64,-28.7 -64,-64l0,-384c0,-35.3 28.7,-64 64,-64z M128,320l0,384l768,0l0,-384z" id="curve0"/>
                </g>
            </g>
        </g>
    </g>
</svg>