<svg x="0" y="0" width="1024" height="1024" version="1.1"
    xmlns="http://www.w3.org/2000/svg"
    xmlns:xlink="http://www.w3.org/1999/xlink">
    <title>code csharp icon</title>
    <desc>code csharp icon from the IconExperience.com O-Collection. Copyright by INCORS GmbH (www.incors.com).</desc>
    <g fill="none" stroke="none" stroke-width="1" stroke-linecap="butt" stroke-linejoin="miter" stroke-miterlimit="4" stroke-dasharray="" stroke-dashoffset="0" font-family="serif" font-weight="400" font-size="16" text-anchor="start" mix-blend-mode="normal">
        <g>
            <g>
                <g>
                    <path d="M699.7,832l32.7,0l7.2,-32l-32.8,0l14.2,-64l32.8,0l14.2,-64l65.3,0l-14.2,64l44.9,0l14.2,-64l65.3,0l-14.2,64l32.8,0l-14.2,64l-32.8,0l-7.1,32l32.8,0l-14.3,64l-32.7,0l-14.3,64l-65.3,0l14.2,-64l-44.9,0l-14.2,64l-65.3,0l14.2,-64l-32.8,0z M448,640l128,0c35.3,0 64,28.8 64,64l0,16l-64,0c0,-8.8 -7.2,-16 -16,-16l-96,0c-8.8,0 -16,7.2 -16,16c0,53.3 0,106.7 0,160c0,8.8 7.2,16 16,16l96,0c8.8,0 16,-7.2 16,-16l64,0l0,16c0,35.2 -28.8,64 -64,64l-128,0c-35.2,0 -64,-28.7 -64,-64l0,-192c0,-35.2 28.7,-64 64,-64z M797.8,832l44.9,0l7.1,-32l-44.9,0z" id="curve2" fill="#4d82b8"/>
                    <path d="M256,768l96,0l0,64l-96,0z M256,192l192,0l0,64l-192,0z M384,288l256,0l0,64l-256,0z M512,384l256,0l0,64l-256,0z M512,480l192,0l0,64l-192,0z M384,576l192,0l0,32l-128,0c-24.6,0 -47,9.3 -64,24.5z M672,672l63.2,0l-7.1,32l-7.1,0c-15.2,0 -27.9,10.2 -31.2,25.1l-1.6,6.9l-16.2,0z" id="curve1" fill="#808080"/>
                    <path d="M896,64l-768,0l0,896l248.5,0c-15.2,-17 -24.5,-39.4 -24.5,-64l0,0l-160,0l0,-768l640,0l0,512l1.3,0c8.8,0 16.4,3.1 22.4,9.1c5.8,-5.7 13.8,-9.1 22.5,-9.1l17.8,0z" id="curve0" fill="#808080"/>
                </g>
            </g>
        </g>
    </g>
</svg>