<svg x="0" y="0" width="1024" height="1024" version="1.1"
    xmlns="http://www.w3.org/2000/svg"
    xmlns:xlink="http://www.w3.org/1999/xlink">
    <title>window earth icon</title>
    <desc>window earth icon from the IconExperience.com O-Collection. Copyright by INCORS GmbH (www.incors.com).</desc>
    <g fill="none" stroke="none" stroke-width="1" stroke-linecap="butt" stroke-linejoin="miter" stroke-miterlimit="4" stroke-dasharray="" stroke-dashoffset="0" font-family="serif" font-weight="400" font-size="16" text-anchor="start" mix-blend-mode="normal">
        <g>
            <g>
                <g>
                    <path d="M128,128l768,0c35.3,0 64,28.8 64,64l0,672c0,17.6 -14.4,32 -32,32l-832,0c-17.6,0 -32,-14.4 -32,-32l0,-672c0,-35.3 28.8,-64 64,-64z M128,320l0,512l768,0l0,-512z" id="curve1" fill="#808080"/>
                    <path d="M512,352c123.7,0 224,100.3 224,224c0,123.7 -100.3,224 -224,224c-123.7,0 -224,-100.3 -224,-224c0,-123.7 100.3,-224 224,-224z M527.3,416.7c4.8,5.2 9.2,12.2 7.3,16.5c-2.6,6 -6.5,13.4 -18.1,17.7c-8.5,3.1 -19.7,3.3 -28.3,7c-8.9,3.9 -17.7,3.5 -22.8,4.7c-8.1,1.9 0.3,-26.3 -2,-29.5c-3.5,-4.7 -24.8,-0.6 -26.6,4.2c-4.3,11.3 5.7,20.8 5.2,23.1c-0.8,4.2 -0.7,21.3 -4.8,25.7c-6.2,6.7 -21.9,12.7 -24,13c-10.2,1.4 -12.6,11.9 -20.2,17.9c-3.2,2.6 -19.4,19.6 -22,24.9c-7,14.3 -0.1,23.4 3.1,26.3c5.4,4.9 7.7,5.5 13.8,7.4c2.4,0.7 25.5,12.6 31.8,19.1c6.4,6.5 9.6,13.4 16,17.3c7.8,4.7 22,10 23.9,13.7c8.5,16.5 5.6,39.7 -18.8,56.1c-6.3,4.3 -19.2,11.3 -16,23.1c0.6,2.1 0.9,4.1 1.2,6c24.8,15.9 54.3,25.1 86,25.1c88.4,0 160,-71.6 160,-160c0,-9.7 -0.9,-19.3 -2.5,-28.5c-0.6,-0.2 -1.1,-0.3 -1.5,-0.2c-2.8,0.9 -3,9.7 -6,14.7c-2.5,4.1 -7.9,4.6 -8.8,5.8c-5.9,8 13.8,14.4 5.2,25.5c-3.6,4.8 -14.8,15.6 -17.8,29.5c-6.3,29.5 -2.1,11.7 -11.6,35.3c-1.4,3.6 -4,17.2 -6,20.2c-9.1,13.9 -34.7,29.6 -41,21.7c-3.6,-4.7 -5.8,-11.6 -6.9,-18.3c-1.2,-6.6 -8.1,-15.1 -7.4,-20.3c1,-8.2 1.7,-10.8 1.9,-20.2c0,-0.4 -5.7,-23.2 -6.6,-25.1c-4.2,-9 -11.1,-13 -20.8,-9.7c-7.5,2.6 -13.9,-1.2 -19.9,-3.6c-11.9,-4.8 -17.5,-20.4 -20,-33.2c0,-0.1 1.8,-20.1 1.9,-21.1c0.4,-5.3 2.8,-10.3 5.7,-14.4c21.4,-30.7 16.4,-17.5 44.1,-27.5c4.6,-1.6 11.4,-1.9 13.8,-1.1c12.4,4.3 11.8,17 24.5,19.2c1.4,0.2 8.1,-3.8 9.5,-3.5c7.8,1.3 15.2,8.7 22.1,5.2c4,-2 6.2,-9.7 2.5,-12.5c-3.5,-2.7 -8.9,-0.7 -12.7,-3.4c-5.7,-4.1 -10.4,1.6 -15.1,-3.9c-2.2,-2.4 -6,-10.1 -8.8,-14.1c-2.9,-4.3 -12,-2.5 -10.5,-0.6c4.6,6.3 11.4,7.2 12.3,10.7c1,3.7 -8.7,8.7 -6.1,1.9c1.3,-3.6 -5.6,-5.8 -13.7,-10c-4.2,-2.2 -8.3,-7.9 -14.7,-4.9c-3.1,1.5 -9.1,9 -11.5,12.5c-4,6.1 -13.2,4.5 -19.4,1.4c-6.1,-2.9 -6.3,-17.7 1.7,-24.2c7.6,-6.1 13.8,-2.4 21.2,-4.4c3,-0.9 4.6,-4.2 9.1,-7.2c5.3,-3.6 -3.3,-9.3 -0.5,-15.1c2.4,-4.8 10.3,-5.7 14.4,-7.8c3.9,-1.9 8.3,-5.1 12.5,-2.6c5.9,3.5 12.3,3.8 18.1,7.4c5.8,3.7 10.6,6.2 15.8,7c-24.7,-22.1 -56.3,-36.6 -91.2,-39.9z M404.1,694.2c-4.2,-5.8 -7.6,-11.1 -9.2,-15c-3.5,-8.5 -4.4,-23.8 -8.5,-28.5c-8.4,-9.7 -16.2,-17.6 -17.7,-27.5c-1.5,-9.1 -6.7,-22.2 -7.6,-29.3c-1.1,-7.9 -4.1,-16.4 -9,-23.6c-0.1,1.9 -0.1,3.8 -0.1,5.7c0,46.8 20.1,88.9 52.1,118.2z" id="curve0" fill="#4d82b8"/>
                </g>
            </g>
        </g>
    </g>
</svg>