<svg x="0" y="0" width="1024" height="1024" version="1.1"
    xmlns="http://www.w3.org/2000/svg"
    xmlns:xlink="http://www.w3.org/1999/xlink">
    <title>pliers icon</title>
    <desc>pliers icon from the IconExperience.com O-Collection. Copyright by INCORS GmbH (www.incors.com).</desc>
    <g fill="none" stroke="none" stroke-width="1" stroke-linecap="butt" stroke-linejoin="miter" stroke-miterlimit="4" stroke-dasharray="" stroke-dashoffset="0" font-family="serif" font-weight="400" font-size="16" text-anchor="start" mix-blend-mode="normal">
        <g>
            <g>
                <g>
                    <path d="M278,674.9c19.6,-19.7 51.5,-19.7 71.2,0c19.6,19.6 19.6,51.5 0,71.2c-19.7,19.6 -51.6,19.6 -71.2,0c-19.7,-19.7 -19.7,-51.6 0,-71.2z" id="curve2" fill="#808080"/>
                    <path d="M238.8,744.9l-138.8,78.6l-12.5,-21.6l-2.1,-3.7l34.5,-129l140.1,-82c22.2,-9.7 46.9,-13.3 71.5,-10c29.3,3.9 56.3,17.3 77.2,38.2c22.3,22.4 36,51.6 38.8,83.1c2.1,23.3 -1.9,46.3 -11.2,67.1l-81.4,138.6l-128.9,34.5l-25.3,-14.6l78.5,-138.8c10.4,4.8 22.1,7.5 34.4,7.5c45.4,0 82.3,-36.9 82.3,-82.3c0,-45.5 -36.9,-82.4 -82.3,-82.4c-45.5,0 -82.4,36.9 -82.4,82.4c0,12.3 2.8,24 7.6,34.4z" id="curve1" fill="#808080"/>
                    <path d="M288.1,545.9c17.4,-93.3 54.2,-194.1 101.4,-275.9c29.7,-51.5 62.5,-98.5 102.4,-142.6c15.1,-16.7 30.9,-32.7 47.2,-48.3c21.3,-20.5 55.2,-20.1 75.9,1.2c20.5,21.3 20.4,55.7 -1.2,76.2c-11.1,10.5 -21.9,21.3 -32.3,32.4c-39,41.4 -70.4,85.8 -98.8,135c-41.3,71.6 -72.5,158.4 -88.2,239.8l-0.2,1.1c-18,-10 -37.8,-16.6 -58.6,-19.3c-16,-2.2 -32,-2 -47.6,0.4z M459.2,629.7l1.1,-0.2c81.4,-15.8 168.2,-47 239.8,-88.4c49.2,-28.4 93.5,-59.8 134.9,-98.8c11.1,-10.5 21.9,-21.3 32.3,-32.3c20.6,-21.7 54.9,-21.8 76.3,-1.3c21.3,20.6 21.7,54.6 1.2,75.9c-15.5,16.3 -31.6,32.1 -48.2,47.2c-44.1,40 -91.2,72.8 -142.6,102.5c-81.8,47.3 -182.6,84.1 -275.9,101.5c2,-13.1 2.5,-26.6 1.3,-40.1c-2.1,-23.4 -9,-45.9 -20.2,-66z" id="curve0" fill="#4d82b8"/>
                </g>
            </g>
        </g>
    </g>
</svg>