<svg x="0" y="0" width="1024" height="1024" version="1.1"
    xmlns="http://www.w3.org/2000/svg"
    xmlns:xlink="http://www.w3.org/1999/xlink">
    <title>arrow to icon</title>
    <desc>arrow to icon from the IconExperience.com O-Collection. Copyright by INCORS GmbH (www.incors.com).</desc>
    <g fill="none" stroke="none" stroke-width="1" stroke-linecap="butt" stroke-linejoin="miter" stroke-miterlimit="4" stroke-dasharray="" stroke-dashoffset="0" font-family="serif" font-weight="400" font-size="16" text-anchor="start" mix-blend-mode="normal">
        <g>
            <g>
                <g>
                    <path d="M653.9,536.2l-118.6,-118.6c-12.4,-12.4 -32.8,-12.4 -45.2,0l-118.7,118.6c-12.4,12.5 -18.6,27.7 -18.7,45.3l-0.7,83.9c-0.1,6.5 3.8,12.2 9.9,14.7c6.1,2.6 12.7,1.2 17.4,-3.4l68.7,-68.7c0,96 0.2,192 0.2,288l127.6,0c0,-96 0.2,-192 0.2,-288l68.7,68.7c4.7,4.6 11.3,6 17.4,3.4c6.1,-2.5 9.8,-8.1 9.9,-14.7l0.7,-83.9c0.1,-17.6 -6.3,-32.8 -18.8,-45.3z" id="curve1" fill="#4d82b8"/>
                    <path d="M512,128c70.7,0 128,57.3 128,128c0,70.7 -57.3,128 -128,128c-70.7,0 -128,-57.3 -128,-128c0,-70.7 57.3,-128 128,-128z" id="curve0" fill="#808080"/>
                </g>
            </g>
        </g>
    </g>
</svg>