<svg x="0" y="0" width="1024" height="1024" version="1.1"
    xmlns="http://www.w3.org/2000/svg"
    xmlns:xlink="http://www.w3.org/1999/xlink">
    <title>signpost icon</title>
    <desc>signpost icon from the IconExperience.com O-Collection. Copyright by INCORS GmbH (www.incors.com).</desc>
    <g fill="none" stroke="none" stroke-width="1" stroke-linecap="butt" stroke-linejoin="miter" stroke-miterlimit="4" stroke-dasharray="" stroke-dashoffset="0" font-family="serif" font-weight="400" font-size="16" text-anchor="start" mix-blend-mode="normal">
        <g>
            <g>
                <g>
                    <path d="M544,64l64,0c17.6,0 32,14.4 32,32c0,298.7 0,565.3 0,864l-128,0c0,-298.7 0,-565.3 0,-864c0,-17.6 14.4,-32 32,-32z" id="curve2" fill="#808080"/>
                    <path d="M672,320l178.7,0c8.9,0 16.4,3.1 22.7,9.4l64,64c12.4,12.4 12.4,32.8 0,45.2l-64,64c-6.3,6.3 -13.8,9.4 -22.7,9.4l-178.7,0z" id="curve1" fill="#76a797"/>
                    <path d="M173.3,128l306.7,0l0,192l-306.7,0c-8.9,0 -16.4,-3.1 -22.7,-9.4l-64,-64c-12.4,-12.4 -12.4,-32.8 0,-45.2l64,-64c6.3,-6.3 13.8,-9.4 22.7,-9.4z" id="curve0" fill="#edc87e"/>
                </g>
            </g>
        </g>
    </g>
</svg>