<svg x="0" y="0" width="1024" height="1024" version="1.1"
    xmlns="http://www.w3.org/2000/svg"
    xmlns:xlink="http://www.w3.org/1999/xlink">
    <title>clipboard check edit icon</title>
    <desc>clipboard check edit icon from the IconExperience.com O-Collection. Copyright by INCORS GmbH (www.incors.com).</desc>
    <g fill="none" stroke="none" stroke-width="1" stroke-linecap="butt" stroke-linejoin="miter" stroke-miterlimit="4" stroke-dasharray="" stroke-dashoffset="0" font-family="serif" font-weight="400" font-size="16" text-anchor="start" mix-blend-mode="normal">
        <g>
            <g>
                <g>
                    <path d="M596.4,796.3l-75.6,25.2c-8.8,3 -17.9,0.8 -24.5,-5.8c-6.6,-6.6 -8.8,-15.7 -5.8,-24.5l25.2,-75.6z" id="curve5" fill="#4d82b8"/>
                    <path d="M544.7,639.3l223.3,-223.3l128,128l-223.3,223.3c-3.7,3.7 -7.6,6.1 -12.6,7.8l-64.8,21.6l0,0l-25.3,-25.3l80,-26.7l-82.7,-82.7l-26.7,80l-25.3,-25.3l0,0l21.6,-64.8c1.7,-5 4.1,-8.9 7.8,-12.6z" id="curve4" fill="#4d82b8"/>
                    <path d="M790.6,393.4l46.1,-46.1c12.4,-12.4 32.8,-12.4 45.2,0l82.8,82.8c12.4,12.4 12.4,32.8 0,45.2l-46.1,46.1z" id="curve3" fill="#4d82b8"/>
                    <path d="M363.3,468.7l41.4,-41.4c6.2,-6.2 16.4,-6.2 22.6,0l52.7,52.7l148.7,-148.7c6.2,-6.2 16.4,-6.2 22.6,0l41.4,41.4c6.2,6.2 6.2,16.4 0,22.6l-201.4,201.4c-6.2,6.2 -16.4,6.2 -22.6,0l-105.4,-105.4c-6.2,-6.2 -6.2,-16.4 0,-22.6z" id="curve2" fill="#4d82b8"/>
                    <path d="M256,192l0,704l512,0l0,-178.7l64,-64l0,242.7c0,35.2 -28.8,64 -64,64l-512,0c-35.2,0 -64,-28.7 -64,-64l0,-640c0,-35.3 28.8,-64 64,-64z M768,370.7l0,-178.7c35.3,0 64,28.8 64,64l0,56.1c-6.5,3 -12.6,7.2 -17.9,12.6z M384,192l256,0l0,32l-256,0z" id="curve1" fill="#edc87e"/>
                    <path d="M384,160c-17.5,0 -32,14.5 -32,32l0,32c0,17.5 14.5,32 32,32l256,0c17.5,0 32,-14.5 32,-32l0,-32c0,-17.6 -14.5,-32 -32,-32z M640,96c52.9,0 96,43.1 96,96l0,32c0,52.9 -43.1,64 -96,64l-256,0c-52.9,0 -96,-11.1 -96,-64l0,-32c0,-52.9 43.1,-96 96,-96c0,-17.7 57.3,-64 128,-64c70.7,0 128,46.3 128,64z M512,64c-17.7,0 -32,14.3 -32,32c0,17.7 14.3,32 32,32c17.7,0 32,-14.3 32,-32c0,-17.7 -14.3,-32 -32,-32z" id="curve0" fill="#808080"/>
                </g>
            </g>
        </g>
    </g>
</svg>