<svg x="0" y="0" width="1024" height="1024" version="1.1"
    xmlns="http://www.w3.org/2000/svg"
    xmlns:xlink="http://www.w3.org/1999/xlink">
    <title>desktop icon</title>
    <desc>desktop icon from the IconExperience.com O-Collection. Copyright by INCORS GmbH (www.incors.com).</desc>
    <g fill="none" stroke="none" stroke-width="1" stroke-linecap="butt" stroke-linejoin="miter" stroke-miterlimit="4" stroke-dasharray="" stroke-dashoffset="0" font-family="serif" font-weight="400" font-size="16" text-anchor="start" mix-blend-mode="normal">
        <g>
            <g>
                <g>
                    <path d="M855.3,373.9l50.8,50.8c12.8,12.8 12.8,33.8 0,46.6l-227.1,227.1c-4.4,4.4 -9.3,7.2 -15.4,8.7l-93.5,23.4c-5.9,1.5 -11.8,-0.2 -16.1,-4.5c-4.3,-4.3 -6,-10.2 -4.5,-16.1l23.4,-93.5c1.5,-6.1 4.3,-11 8.7,-15.4l227.1,-227.1c12.8,-12.8 33.8,-12.8 46.6,0z" id="curve2" fill="#808080"/>
                    <path d="M128,128l128,0l-192,192l0,-128c0,-35.3 28.7,-64 64,-64z M896,128l-128,0l192,192l0,-128c0,-35.3 -28.7,-64 -64,-64z M896,896l-128,0l192,-192l0,128c0,35.3 -28.7,64 -64,64z M128,896l128,0l-192,-192l0,128c0,35.3 28.7,64 64,64z" id="curve1" fill="#808080"/>
                    <path d="M301.3,128l421.4,0l237.3,237.3l0,293.4l-237.3,237.3l-421.4,0l-237.3,-237.3l0,-293.4z M320,256l0,512l384,0l0,-49.3l0,-1.4l224,-224c25,-25 25,-65.6 0,-90.6l-50.7,-50.7c-25,-25 -65.6,-25 -90.6,0l-82.7,82.7l0,-1.4l0,-177.3z" id="curve0" fill="#4d82b8"/>
                </g>
            </g>
        </g>
    </g>
</svg>