<svg x="0" y="0" width="1024" height="1024" version="1.1"
    xmlns="http://www.w3.org/2000/svg"
    xmlns:xlink="http://www.w3.org/1999/xlink">
    <title>arrow squiggly icon</title>
    <desc>arrow squiggly icon from the IconExperience.com O-Collection. Copyright by INCORS GmbH (www.incors.com).</desc>
    <g fill="#4d82b8" stroke="none" stroke-width="1" stroke-linecap="butt" stroke-linejoin="miter" stroke-miterlimit="4" stroke-dasharray="" stroke-dashoffset="0" font-family="serif" font-weight="400" font-size="16" text-anchor="start" mix-blend-mode="normal">
        <g>
            <g>
                <g>
                    <path d="M653.9,184.2l-118.6,-118.6c-12.4,-12.4 -32.8,-12.4 -45.2,0l-118.7,118.6c-12.4,12.5 -18.6,27.7 -18.7,45.3l-0.7,83.9c-0.1,6.5 3.8,12.2 9.9,14.7c6.1,2.6 12.7,1.2 17.4,-3.4l68.7,-68.7l0,32c0,16.3 -19.1,30.7 -38.3,45c-44.8,33.7 -89.7,67.3 -89.7,147c0,129.9 88.3,151.9 176.5,174c39.7,9.9 79.5,19.9 79.5,50c0,16.3 -19.1,30.7 -38.2,45c-44.9,33.7 -89.8,67.3 -89.8,147l0,64l128,0l0,-64c0,-16.3 19.1,-30.7 38.3,-45c44.8,-33.7 89.7,-67.3 89.7,-147c0,-129.9 -88.3,-151.9 -176.5,-174c-39.7,-9.9 -79.5,-19.9 -79.5,-50c0,-16.3 19.1,-30.7 38.2,-45c44.9,-33.7 89.8,-67.3 89.8,-147l0,-32l68.7,68.7c4.7,4.6 11.3,6 17.4,3.4c6.1,-2.5 9.8,-8.1 9.9,-14.7l0.7,-83.9c0.1,-17.6 -6.3,-32.8 -18.8,-45.3z" id="curve0"/>
                </g>
            </g>
        </g>
    </g>
</svg>